PathFileType	4	(X/Y/Z)	E:\Studenten\Marcel_BSc\Ayumi_25_09_2024\25-09-2024\sumo_dl_80kg01.trc
DataRate	CameraRate	NumFrames	NumMarkers	Units	OrigDataRate	OrigDataStartFrame	OrigNumFrames
200.0	200.0	4	52	mm	200.0	2087	2782	
Frame#	Time	RSACR			LSACR			USACR			LBAR			RBAR			RHEE			RMT1			RMT5			RMT2			LHEE			LMT1			LMT5			LMT2			LMMAL			LLMAL			LTIB4			LTIB2			LTIB3			LTIB1			RMMAL			RLMAL			RTIB1			RTIB2			RTIB3			RTHI1			RTHI4			RTHI3			RTHI2			LTHI1			LTHI4			LTHI3			LTHI2			FHD			LBHD			RBHD			C7			T10			CLAV			LSHO			RSHO			LRAD			LUL			LRFIN			RRAD			RUL			RUFIN			LDUPA			LMUPA			LUUPA			RDUPA			RUUPA			RMUPA			
		X1	Y1	Z1	X2	Y2	Z2	X3	Y3	Z3	X4	Y4	Z4	X5	Y5	Z5	X6	Y6	Z6	X7	Y7	Z7	X8	Y8	Z8	X9	Y9	Z9	X10	Y10	Z10	X11	Y11	Z11	X12	Y12	Z12	X13	Y13	Z13	X14	Y14	Z14	X15	Y15	Z15	X16	Y16	Z16	X17	Y17	Z17	X18	Y18	Z18	X19	Y19	Z19	X20	Y20	Z20	X21	Y21	Z21	X22	Y22	Z22	X23	Y23	Z23	X24	Y24	Z24	X25	Y25	Z25	X26	Y26	Z26	X27	Y27	Z27	X28	Y28	Z28	X29	Y29	Z29	X30	Y30	Z30	X31	Y31	Z31	X32	Y32	Z32	X33	Y33	Z33	X34	Y34	Z34	X35	Y35	Z35	X36	Y36	Z36	X37	Y37	Z37	X38	Y38	Z38	X39	Y39	Z39	X40	Y40	Z40	X41	Y41	Z41	X42	Y42	Z42	X43	Y43	Z43	X44	Y44	Z44	X45	Y45	Z45	X46	Y46	Z46	X47	Y47	Z47	X48	Y48	Z48	X49	Y49	Z49	X50	Y50	Z50	X51	Y51	Z51	X52	Y52	Z52	
2087	10.43	465.49823	772.98737	-967.50183	467.06458	776.56366	-909.04749	448.59164	779.07404	-937.68945	227.41057	270.73434	198.67319	182.60399	291.58234	-2021.642	273.9574	32.314697	-1367.1029	120.1514	43.242931	-1489.7856	190.63763	29.551889	-1531.1196	152.16316	41.999439	-1515.7909	308.22189	40.702381	-486.47461	146.61504	49.685078	-379.27951				174.08279	46.864952	-350.8013	249.28172	71.254677	-495.10043	292.82007	70.777954	-427.40112	312.82422	205.81036	-472.07587	301.39243	270.39951	-471.74261	338.89032	257.44952	-503.56036	335.86832	300.21613	-507.82495	225.69926	65.586914	-1369.4302	271.43808	68.77356	-1427.3945	277.33264	314.88129	-1386.9152	318.88885	296.57578	-1363.5435	284.90402	250.45895	-1394.2887	469.34454	660.06769	-1142.0659	372.20728	581.74451	-1229.2343	408.49841	545.8819	-1233.7024	428.26501	597.79004	-1198.0905	486.34976	659.5639	-733.38715	425.06039	553.66156	-643.44403	382.80933	583.59973	-640.73657	429.93527	610.17291	-677.37915	-143.15218	1010.8928	-766.71472	-93.671051	1093.8441	-825.88324	-124.74702	1061.6024	-942.27136	67.234726	971.46545	-892.85187	400.48679	802.74634	-932.87097	41.918716	832.23871	-898.58521	70.896713	894.19006	-721.01038	28.939268	874.47498	-1047.6888	170.44266	365.92065	-697.95221	170.67947	366.45657	-657.026	170.56841	279.34598	-711.6803	163.26517	364.80093	-1137.058	162.42909	366.57977	-1185.6703	158.55946	281.85303	-1127.1808	110.82609	668.41278	-712.63733	140.12029	652.39246	-675.88019	114.5553	725.58984	-691.42706	99.206879	628.33771	-1074.1213	82.552376	701.67389	-1101.7911	103.25497	645.91193	-1120.83
2088	10.435	465.50449	772.41174	-967.5592	466.76547	775.89081	-909.07178	448.55753	778.47412	-937.77747	227.13591	269.38123	198.61919	182.81226	290.09583	-2021.724	273.96387	32.318108	-1367.1592	120.248	43.362831	-1489.7708	190.65411	29.542332	-1531.1555	152.15921	42.026196	-1515.8391	308.22345	40.71563	-486.48666	146.63895	49.685387	-379.29062				174.08527	46.862934	-350.80743	249.27199	71.253441	-495.1225	292.82492	70.774078	-427.4227	313.01929	206.08376	-471.73468	301.22079	270.40436	-471.73254	338.78754	257.49731	-503.48233	335.73743	300.23541	-507.72696	225.71634	65.592964	-1369.4907	271.44077	68.765953	-1427.4232	277.24548	314.90335	-1387.057	318.85742	296.61475	-1363.6896	284.40414	250.17085	-1394.1564	469.55807	659.6712	-1142.0793	372.34778	581.57159	-1229.2416	408.92969	545.54053	-1233.5033	428.39923	597.50427	-1198.1287	486.42426	659.19495	-733.45886	425.07947	553.43842	-643.47034	382.84506	583.43805	-640.8139	430.02673	609.93353	-677.46399	-143.5455	1009.2327	-766.89014	-94.135498	1092.1979	-826.11121	-125.20718	1059.8447	-942.4884	66.854126	970.06525	-892.98688	400.45255	802.07391	-932.9928	41.850922	830.79083	-898.72363	70.590004	892.72131	-721.16766	28.6724	872.95715	-1047.78	170.79648	364.50848	-698.01495	170.63531	365.12912	-657.09296	170.47687	278.01987	-711.73132	163.35065	363.42062	-1137.1313	162.50577	365.2048	-1185.7561	158.57823	280.4975	-1127.2842	110.76707	667.03809	-712.72003	140.09549	651.01709	-675.9809	114.44835	724.21436	-691.5672	99.182838	626.88843	-1074.2888	82.436707	700.22864	-1101.9359	103.17226	644.49036	-1120.9615
2089	10.44	465.51599	771.81287	-967.60657	467.06311	775.43182	-909.19684	448.54697	777.85724	-937.83734	226.84717	268.06577	198.55486	183.03252	288.61374	-2021.8086	273.966	32.317238	-1367.2058	120.31248	43.428146	-1489.7755	190.66609	29.531765	-1531.2023	152.18958	42.008324	-1515.8713	308.22641	40.722988	-486.50494	146.63687	49.667549	-379.3006				174.07643	46.859756	-350.81622	249.27724	71.255486	-495.15854	292.81577	70.776978	-427.43018	313.89728	206.62222	-470.88654	301.10983	270.41052	-471.6517	338.66708	257.51306	-503.42978	335.58948	300.26535	-507.64822	225.71393	65.608154	-1369.5215	271.44635	68.767029	-1427.4827	277.93906	314.60678	-1387.1976	318.7406	296.66074	-1363.8456	283.82874	249.74564	-1394.7732	469.75293	659.26239	-1142.0771	372.50397	581.38971	-1229.261	409.07794	545.32855	-1233.5575	428.58337	597.24982	-1198.0996	486.51428	658.82745	-733.54272	425.09604	553.22766	-643.53729	382.89697	583.29095	-640.90637	430.12607	609.78552	-677.52802	-143.91716	1007.589	-767.05157	-94.626846	1090.5317	-826.32977	-125.68307	1058.1038	-942.68622	66.406296	968.65894	-893.15564	400.41003	801.38513	-933.1062	41.761097	829.31818	-898.87958	70.292686	891.27057	-721.32263	28.404583	871.44159	-1047.9066	170.41762	363.24954	-698.07806	170.61382	363.8085	-657.15039	170.40991	276.68994	-711.7887	163.42537	362.01889	-1137.2201	162.61313	363.82513	-1185.8224	158.61783	279.12054	-1127.3401	110.69337	665.67273	-712.77307	140.05547	649.6676	-676.05579	114.3362	722.84259	-691.6131	99.130325	625.46893	-1074.3862	82.332962	698.77185	-1102.0923	103.15736	643.03137	-1121.0835
2090	10.445	465.53818	771.21753	-967.64117	466.92471	774.68054	-909.30591	448.54129	777.22546	-937.89746	226.58238	266.73929	198.51544	183.27338	287.16214	-2021.8611	273.94971	32.326866	-1367.2384	120.30961	43.430244	-1489.8079	190.65361	29.531979	-1531.244	152.16571	42.006271	-1515.9073	308.20963	40.738377	-486.51346	146.6292	49.670822	-379.30548				174.07741	46.856571	-350.82947	249.26207	71.254372	-495.15741	292.82904	70.813034	-427.40155	313.7749	206.6281	-470.84598	300.96088	270.4252	-471.60327	338.84741	257.52435	-503.14432	335.45447	300.29495	-507.57581	225.70096	65.613861	-1369.5607	271.4249	68.799438	-1427.5397	277.1228	314.88702	-1387.3361	318.64279	296.70218	-1363.9485	282.94946	249.05348	-1394.5449	469.91919	658.83759	-1142.1036	372.65051	581.20374	-1229.2672	409.1459	545.09521	-1233.5995	428.77182	596.92566	-1198.1171	486.60437	658.47192	-733.60138	425.10028	553.01129	-643.56146	382.9704	583.13452	-640.99664	430.20566	609.53479	-677.62457	-144.29413	1005.9457	-767.18219	-95.117271	1088.8595	-826.58472	-126.17702	1056.3433	-942.90735	66.004524	967.28699	-893.31439	400.39117	800.72015	-933.17169	41.694935	827.8761	-899.04395	69.989807	889.85547	-721.48077	28.187393	869.92542	-1048.0083	170.3844	361.93878	-698.14801	170.56828	362.51941	-657.2533	168.69345	276.4462	-712.78235	163.52199	360.6319	-1137.3073	162.74298	362.42511	-1185.8934	158.61595	277.7876	-1127.4054	110.59931	664.30621	-712.8241	140.00945	648.34473	-676.11035	114.22463	721.48688	-691.74298	99.076149	624.03101	-1074.5361	82.235146	697.31396	-1102.2235	103.08877	641.60175	-1121.2156
